Coordinates
version=1
nRows=9
nColumns=24
inDegrees=yes

Units are S.I. units (second, meters, Newtons, ...)
Angles are in degrees.

endheader
time	pelvis_tilt	pelvis_list	pelvis_rotation	pelvis_tx	pelvis_ty	pelvis_tz	hip_flexion_r	hip_adduction_r	hip_rotation_r	knee_angle_r	ankle_angle_r	subtalar_angle_r	mtp_angle_r	hip_flexion_l	hip_adduction_l	hip_rotation_l	knee_angle_l	ankle_angle_l	subtalar_angle_l	mtp_angle_l	lumbar_extension	lumbar_bending	lumbar_rotation
      1.04000000	     23.81507866	     -2.53464540	     -0.61213593	     -0.27191107	      0.97820102	     -0.01501233	     -4.21206227	     -0.61128678	    -14.57537345	    -23.88371542	      8.67442792	     -0.46173707	     32.99217815	    -36.75035781	      2.65553014	    -13.68914948	      3.77459465	     10.62754601	     14.56223386	     13.26199004	    -31.63223820	      0.99019546	      0.48130168
      1.04500000	     24.01642449	     -2.69019958	     -0.31562766	     -0.26621195	      0.97778014	     -0.01513952	     -4.67446869	     -0.19785012	    -15.32460899	    -21.59031713	      8.34480607	     -0.01631017	     33.19832553	    -37.38369705	      2.36843342	    -13.75020107	      3.85830967	     10.88801620	     14.81438198	     13.21052515	    -31.79503854	      1.26145484	      0.30461394
      1.05000000	     24.20594747	     -2.82599622	     -0.03483762	     -0.26048044	      0.97730127	     -0.01519543	     -5.13032652	      0.21175159	    -16.06868373	    -19.31071333	      8.00048984	      0.53612262	     33.42815811	    -37.99486302	      2.09872526	    -13.80858683	      3.91974416	     11.14390662	     15.06675176	     13.15175904	    -31.93834358	      1.50250304	      0.13209884
      1.05500000	     24.39110765	     -2.95340112	      0.22487428	     -0.25473215	      0.97675647	     -0.01517653	     -5.57747896	      0.62725064	    -16.79967485	    -17.06607549	      7.62649222	      1.18345064	     33.66720594	    -38.59696261	      1.84229450	    -13.87161928	      3.96898616	     11.41040126	     15.29712222	     13.09173240	    -32.07477141	      1.72107542	     -0.01636003
      1.06000000	     24.54790839	     -3.06911643	      0.46058797	     -0.24896355	      0.97613469	     -0.01508553	     -5.98889110	      1.04319618	    -17.50157974	    -14.86964290	      7.22246579	      1.91550248	     33.88945013	    -39.16335409	      1.60423379	    -13.92963483	      4.00534221	     11.68695527	     15.48134408	     13.04159659	    -32.17820739	      1.91570069	     -0.15627179
      1.06500000	     24.68847474	     -3.16575265	      0.66867658	     -0.24319685	      0.97545061	     -0.01490635	     -6.37221224	      1.45040291	    -18.16429672	    -12.73833635	      6.80910926	      2.73216265	     34.10678540	    -39.70422061	      1.39189157	    -13.98328116	      4.02356949	     11.95445120	     15.64617457	     12.99914928	    -32.26406479	      2.07437919	     -0.27725680
      1.07000000	     24.82213103	     -3.24881697	      0.84995767	     -0.23744508	      0.97470518	     -0.01465344	     -6.73446428	      1.85000568	    -18.78507412	    -10.68701976	      6.37729572	      3.62318880	     34.31583607	    -40.23184467	      1.20245763	    -14.03553064	      4.02895609	     12.22429483	     15.79026099	     12.96598812	    -32.34472966	      2.20367623	     -0.37260166
      1.07500000	     24.92213900	     -3.32139888	      0.99781370	     -0.23169908	      0.97388541	     -0.01431352	     -7.04141150	      2.24142081	    -19.34281618	     -8.73464462	      5.93341633	      4.53918395	     34.48564673	    -40.71899767	      1.03715838	    -14.08559928	      4.02369446	     12.49146811	     15.87821599	     12.94839412	    -32.39163094	      2.30313069	     -0.45433635
      1.08000000	     25.00493349	     -3.37872458	      1.11533274	     -0.22598253	      0.97301577	     -0.01390791	     -7.31106102	      2.61503278	    -19.83867347	     -6.88830931	      5.48429563	      5.49277409	     34.62434184	    -41.18003968	      0.89893250	    -14.12593282	      4.00360063	     12.75095738	     15.94030464	     12.94534002	    -32.42556823	      2.37269759	     -0.50990371
